<svg width="189" height="77" viewBox="0 0 189 77" fill="none" xmlns="http://www.w3.org/2000/svg">
<g clip-path="url(#clip0_1991_2)">
<path d="M27.0177 30.3583C24.4017 31.1844 21.9921 32.3546 19.7891 34.0756C19.0318 34.6263 18.3434 35.2459 17.5861 35.8654C16.6223 36.6915 15.4519 36.6915 14.6258 35.9343C13.8685 35.177 13.7997 34.2821 14.4881 33.4561C16.2092 31.5286 18.2057 30.0141 20.4775 28.7062C23.0936 27.1917 25.9162 26.0903 28.9454 25.5396C29.2896 25.4708 29.3584 25.2643 29.4273 25.0577C30.7353 21.96 32.0434 18.8622 33.3514 15.8333C34.7971 12.6668 36.3806 9.56901 38.6524 6.81546C39.3409 5.9894 40.0981 5.30101 40.9243 4.68146C41.062 4.61262 41.1997 4.54378 41.1997 4.33727C40.5112 4.40611 39.8916 4.61262 39.2032 4.81914C34.2464 6.60895 30.1846 9.63785 27.362 14.25C27.0177 14.8696 26.6047 15.4891 26.1228 15.971C25.4343 16.6594 24.6082 17.1413 23.5755 16.9348C22.2675 16.6594 21.7167 15.558 21.7167 14.1812C21.7167 13.3551 22.061 12.6668 22.474 12.0472C25.5032 7.98572 29.2208 4.95682 33.7645 2.75397C36.3806 1.51488 39.1343 0.619973 41.9569 0.20694C43.678 0.000423909 45.3992 -0.0684149 47.1891 0.000423914C48.2906 0.0692627 49.0479 1.23952 48.7725 2.40978C48.6348 3.02933 48.2906 3.5112 47.7399 3.78656C45.0549 4.95682 43.265 7.09082 41.6816 9.43134C39.6162 12.4602 38.1017 15.6957 36.6559 18.9999C35.8298 20.8586 35.0725 22.7172 34.2464 24.5759C34.1087 24.9201 34.1775 24.9889 34.5218 24.9889C38.1705 24.9201 41.475 25.8838 44.3665 28.0866C44.3665 28.0866 44.4353 28.0866 44.5042 28.1555C44.6419 27.3294 44.7796 26.4345 44.9861 25.6084C45.8122 21.6846 46.8449 17.7608 48.6348 14.1812C51.2509 8.88063 54.8308 4.26843 59.5811 0.75765C60.5449 0.00042393 61.8529 0.20694 62.4725 1.10184C63.2298 2.06559 63.0233 3.5112 61.9906 4.13075C59.0992 5.92056 57.0338 8.39875 55.1062 11.0835C52.6278 14.7319 50.7002 18.5869 49.6675 22.9237C49.1167 25.1954 48.8414 27.4671 49.1167 29.8076C49.3233 31.1155 49.8052 32.2858 50.6313 33.3184C51.4574 34.351 51.5951 35.3147 50.9755 36.2096C50.3559 37.1045 49.2544 37.311 48.2906 36.7603C48.0841 36.6915 47.9464 36.485 47.7399 36.485C47.7399 37.311 47.8775 38.0683 48.0152 38.8255C48.4971 41.6479 49.1856 44.4014 50.0117 47.0861C50.3559 48.1876 50.0117 48.9448 48.9791 49.289C47.9464 49.6332 46.9137 49.2201 46.5695 48.1876C45.9499 46.2601 45.468 44.3326 45.0549 42.4051C44.5042 39.7204 44.0223 36.9668 43.9534 34.2133C43.9534 34.0756 43.9534 33.9379 43.9534 33.8691C44.16 32.9742 43.678 32.4235 42.9896 31.9416C40.5112 30.3583 37.8263 29.5323 34.866 29.2569C34.1775 29.1881 33.4891 29.1881 32.7318 29.1881C32.3188 29.1881 32.1122 29.3257 31.9057 29.7388C30.2534 33.4561 28.3258 37.1734 26.1228 40.6153C24.5394 43.0935 22.6117 45.2963 20.1333 46.8796C17.5861 48.5318 14.8323 49.4267 11.8032 49.4267C6.50216 49.3578 2.09613 45.9159 1.13231 40.4088C1.06347 40.1334 1.13231 39.8581 0.925781 39.6516C0.925781 38.8943 0.925781 38.0683 0.925781 37.311C1.13231 36.9668 1.06347 36.5538 1.13231 36.1408C1.75191 32.3546 3.88608 29.6011 6.98407 27.4671C8.08558 26.7099 9.32478 26.0215 10.6328 25.5396C11.5278 25.1954 12.2162 25.4708 12.8358 26.0903C13.4554 26.7099 13.5243 27.6048 13.1801 28.362C12.9735 28.8439 12.5605 29.1192 12.0785 29.3257C10.3574 30.0141 8.84287 30.909 7.53483 32.2858C5.74488 34.2133 4.78106 36.4161 4.98759 39.032C5.33181 43.3688 8.63633 45.7782 12.6293 45.3652C16.6911 44.9521 19.7203 42.8181 21.9233 39.445C23.7821 36.6226 25.4343 33.7314 26.9489 30.7025C27.0177 30.5648 27.0177 30.496 27.0177 30.3583C27.0866 30.3583 27.0866 30.3583 27.0866 30.3583C27.0866 30.2895 27.0866 30.2895 27.0177 30.3583Z" fill="#CCCCCC"/>
<path d="M140.266 16.728C141.436 15.6954 142.538 14.5252 143.777 13.6303C145.085 12.6665 146.462 11.9781 148.114 11.8405C150.317 11.7028 152.038 13.4237 152.314 15.5577C152.52 17.4164 152.038 19.0685 151.281 20.7206C150.455 22.5793 149.353 24.3003 148.252 26.0901C147.15 27.9487 145.98 29.7385 145.154 31.7348C145.016 32.079 144.879 32.4232 144.879 32.8363C144.741 33.6623 145.292 34.213 146.118 34.1442C146.6 34.1442 147.082 33.8689 147.495 33.6623C149.698 32.2856 151.488 30.4958 153.278 28.5683C155.825 25.7459 157.959 22.5793 160.231 19.6192C161.677 17.7606 163.053 15.8331 164.362 13.9056C164.568 13.5614 164.775 13.1484 164.912 12.8042C165.325 11.7028 166.496 11.1521 167.597 11.5651C168.699 11.9093 169.181 13.0795 168.836 14.181C168.561 15.0759 168.079 15.8331 167.528 16.5903C165.807 19.1374 163.88 21.5467 162.021 24.0249C160.3 26.2966 158.716 28.7059 157.202 31.1841C156.926 31.5972 156.72 32.0102 156.582 32.4921C156.376 33.1805 156.72 33.5935 157.408 33.4558C158.51 33.3181 159.542 32.7674 160.506 32.2167C163.191 30.7023 165.532 28.7748 167.735 26.6408C172.003 22.5105 175.583 17.8983 179.094 13.1484C179.37 12.7354 179.714 12.3223 179.989 11.9781C180.678 11.0832 181.848 10.9455 182.743 11.6339C183.707 12.3223 183.913 13.4926 183.294 14.3186C180.609 18.0359 178.337 22.0286 175.996 25.9524C173.242 30.6334 170.489 35.3145 167.253 39.7201C166.22 41.0969 165.188 42.336 164.017 43.5751C163.88 43.7128 163.742 43.7816 163.742 43.9882C163.673 43.9882 163.673 43.9882 163.604 43.9882V44.057C163.673 44.057 163.673 44.057 163.673 43.9882C164.981 43.4374 166.151 42.7491 167.322 42.0607C171.521 39.5825 175.101 36.2782 178.543 32.8363C181.366 29.945 183.913 26.8473 186.323 23.6119C186.667 23.1988 187.011 22.7858 187.562 22.717C188.25 22.5793 188.664 22.9923 188.457 23.7496C188.388 24.0249 188.25 24.3003 188.044 24.5068C184.12 29.7385 180.058 34.8326 175.514 39.5825C173.174 42.0607 170.764 44.4012 167.941 46.2598C164.568 48.6003 160.782 49.7018 156.651 49.4953C153.828 49.3576 151.281 48.4627 149.285 46.3975C148.665 45.778 148.183 45.0207 147.977 44.1258C147.701 42.5425 149.147 41.1658 150.662 41.5788C151.694 41.8541 152.451 42.5425 153.209 43.2309C153.484 43.5063 153.76 43.7816 154.035 44.1258C154.241 44.47 154.586 44.5389 154.93 44.5389C155.963 44.5389 156.789 44.057 157.615 43.5063C159.474 42.2672 160.988 40.6151 162.434 38.8252C164.706 36.0717 166.633 33.0428 168.492 30.0139C168.561 29.8762 168.63 29.7385 168.699 29.532C168.768 29.4632 168.836 29.4632 168.768 29.3255C168.768 29.3255 168.699 29.3943 168.63 29.3943C167.253 30.7023 165.876 32.079 164.43 33.3181C162.709 34.6949 160.988 36.0717 158.923 36.9666C156.582 37.9992 154.31 37.4485 152.933 35.5898C152.727 35.3145 152.589 35.0391 152.451 34.6949C152.383 34.4196 152.314 34.0754 152.245 33.7312C152.038 33.8 151.901 34.0065 151.763 34.1442C150.524 35.4521 149.147 36.6224 147.495 37.4485C144.879 38.6876 142.056 37.7238 140.886 35.1768C140.197 33.7312 140.404 32.2856 140.817 30.8399C141.368 28.9125 142.4 27.2603 143.433 25.5394C144.534 23.6807 145.705 21.8909 146.737 20.0323C147.219 19.1374 147.632 18.1736 147.908 17.141C147.977 16.8657 148.045 16.5215 147.908 16.2461C147.632 15.4889 147.219 15.2824 146.462 15.4889C145.292 15.8331 144.328 16.5215 143.364 17.2787C140.817 19.3439 138.683 21.8221 136.686 24.3691C133.519 28.3618 130.766 32.6986 128.081 37.0354C127.392 38.2057 126.153 38.4122 125.051 37.655C124.501 37.242 124.294 36.6912 124.225 36.0717C124.225 35.934 124.294 35.7963 124.157 35.7275C124.019 35.6587 123.95 35.7963 123.812 35.8652C122.917 36.5536 121.954 37.1043 120.921 37.5173C118.374 38.5499 115.895 36.7601 115.413 34.6261C115.138 33.5247 115.069 32.4921 115.207 31.3218C115 31.3907 114.863 31.5283 114.794 31.666C113.21 33.7312 111.489 35.5898 109.286 37.1043C107.014 38.6876 104.674 37.9303 103.159 36.4159C102.264 35.521 102.058 34.3507 101.92 33.1805C101.92 32.8363 101.92 32.4921 101.851 32.2167C101.644 32.2856 101.576 32.4921 101.507 32.6298C100.199 34.4196 98.8218 36.1405 96.8942 37.242C95.3796 38.1369 93.7962 38.3434 92.144 37.5173C91.5244 37.242 91.0424 36.7601 90.7671 36.2094C89.8032 34.213 89.6656 32.1479 90.1475 30.0139C90.2163 29.7385 90.354 29.3943 90.2852 29.0501C90.0098 29.3943 89.8033 29.7385 89.5967 30.0827C88.151 32.4921 86.4987 34.6949 84.2269 36.347C83.263 37.0354 82.2992 37.655 81.06 37.8615C78.0997 38.4122 75.346 36.6224 74.5198 33.6623C74.2445 32.6298 74.2445 31.5283 74.3821 30.4958C74.3821 30.2204 74.5198 29.945 74.3821 29.6697C74.3821 29.6697 74.3821 29.6697 74.451 29.6697C74.451 29.6697 74.451 29.6697 74.3821 29.6697C73.2118 30.9088 71.9726 32.1479 70.7334 33.2493C68.5304 35.1768 66.1208 36.8289 63.2294 37.655C61.3017 38.2057 59.3053 38.2057 57.3088 37.7927C54.7615 37.242 52.8339 35.1079 52.4897 32.4232C52.0766 29.7385 52.6274 27.1915 53.7289 24.7821C55.6565 20.3076 58.548 16.4526 62.5409 13.5614C64.1244 12.3912 65.9143 11.5651 67.8419 11.2209C71.2842 10.6702 75.0017 13.2172 74.451 17.4852C74.0379 20.996 70.5957 25.7459 65.7766 26.5719C63.1605 27.0538 60.8198 26.4343 58.6857 24.9198C58.3414 24.6445 58.2038 24.7821 58.0661 25.1263C57.3088 26.7785 56.6203 28.4994 56.5515 30.3581C56.5515 30.9088 56.5515 31.3907 56.6892 31.9414C57.0334 33.387 58.4103 34.4196 60.0625 34.4884C62.059 34.5572 63.849 33.9377 65.6389 33.1116C70.2515 30.8399 73.9691 27.5357 77.0671 23.4054C78.3063 21.7532 79.4078 19.9634 80.7847 18.449C82.9877 16.0396 85.3972 13.9745 88.3575 12.5288C90.354 11.5651 92.4193 10.9455 94.6223 11.1521C96.2746 11.2897 97.7892 11.8404 99.1661 12.9419C99.7168 13.3549 100.061 13.9056 99.9234 14.6628C99.7857 15.4201 99.0972 15.9019 98.3399 15.6266C98.2022 15.5577 97.9957 15.4889 97.858 15.4201C96.0681 14.0433 94.1404 14.1121 92.2128 14.9382C89.9409 15.8331 88.0133 17.2787 86.2922 18.9308C83.6073 21.4779 81.2666 24.3003 79.6143 27.6734C78.9259 28.9813 78.444 30.3581 78.3751 31.8037C78.3063 32.9739 78.857 33.8689 79.8897 34.0065C80.4404 34.0754 80.9223 33.8689 81.4043 33.6623C82.7811 32.9739 84.0203 31.9414 85.053 30.8399C88.2198 27.6734 90.8359 24.0249 93.1078 20.1011C93.2455 19.8257 93.3832 19.5504 93.5897 19.275C94.2093 18.3113 95.3796 18.0359 96.4123 18.6555C97.3761 19.275 97.6515 20.4453 97.1007 21.409C96.2058 22.9235 95.3796 24.4379 94.6912 26.0901C94.0027 27.811 93.3831 29.532 93.1766 31.4595C93.1078 32.079 93.1078 32.6986 93.3143 33.3181C93.452 33.8 93.7274 33.9377 94.2781 33.8689C95.2419 33.7312 95.9992 33.2493 96.7565 32.6298C99.2349 30.4958 101.438 28.1552 103.159 25.4017C106.877 19.4816 110.525 13.4926 114.105 7.50361C115 5.92032 115.826 4.33703 116.377 2.54722C116.446 2.3407 116.515 2.06535 116.515 1.78999C116.652 0.619732 117.754 -0.137494 118.856 0.000183459C120.026 0.2067 120.783 1.23928 120.577 2.47838C120.232 4.54354 119.406 6.40219 118.442 8.192C116.239 12.1158 113.761 15.9019 111.42 19.7569C109.424 23.0612 107.565 26.5031 106.395 30.2204C106.119 30.9776 105.913 31.8037 105.913 32.6298C105.913 33.7312 106.395 34.0754 107.496 33.7312C108.942 33.2493 110.043 32.2856 111.145 31.3218C113.761 29.0501 115.826 26.3654 117.823 23.6119C118.511 22.6481 118.924 21.4779 119.544 20.3765C121.403 17.0722 123.33 13.8368 125.258 10.5325C125.327 10.3948 125.465 10.2572 125.465 10.0506C124.157 10.1195 122.917 10.2572 121.747 10.8079C121.472 10.9455 121.196 11.0144 120.921 11.0144C120.577 11.0144 120.164 10.9455 119.957 10.6014C119.75 10.2572 119.888 9.84413 120.095 9.56877C120.37 9.22458 120.645 9.01806 121.059 8.81154C122.367 8.192 123.743 7.91664 125.12 7.71012C125.671 7.57245 126.291 7.50361 126.91 7.43477C127.117 7.43477 127.255 7.29709 127.323 7.15941C128.356 5.30077 129.32 3.44212 129.939 1.37696C130.284 0.275538 131.385 -0.34401 132.418 -0.0686553C133.519 0.275538 134.139 1.37696 133.795 2.54722C133.519 3.64864 133.037 4.68122 132.556 5.7138C132.418 5.92032 132.349 6.19567 132.211 6.47103C132.762 6.33335 133.106 6.12683 133.519 5.92032C133.864 5.7138 134.139 5.50728 134.483 5.36961C135.516 4.8189 136.617 5.02541 137.099 5.85148C137.65 6.67754 137.375 7.8478 136.48 8.46735C135.378 9.29342 134.139 9.77529 132.762 9.9818C132.005 10.0506 131.247 10.1883 130.49 10.1883C130.284 10.1883 130.146 10.1883 130.077 10.3948C127.323 15.4889 124.019 20.3076 121.54 25.5394C120.577 27.5357 119.75 29.532 119.337 31.666C119.269 32.079 119.2 32.5609 119.337 32.9739C119.475 33.5935 119.75 33.8 120.37 33.7312C120.921 33.6623 121.403 33.387 121.885 33.1116C123.675 32.079 125.12 30.6334 126.566 29.1878C128.081 27.6045 129.526 25.8836 130.834 24.0937C131.867 22.6481 132.693 20.996 133.588 19.4127C136.342 14.4563 139.096 9.49993 141.436 4.33703C141.918 3.37328 142.263 2.3407 142.607 1.30812C142.882 0.413216 143.777 -0.206333 144.672 -0.0686553C145.636 0.000183454 146.393 0.75741 146.531 1.65231C146.6 2.06535 146.462 2.40954 146.324 2.82257C145.636 4.88774 144.603 6.88406 143.639 8.88038C142.4 11.3586 141.161 13.8368 139.853 16.315C139.784 16.3838 139.784 16.4526 139.715 16.5903C139.646 16.6592 139.578 16.728 139.646 16.7968C139.578 16.7968 139.578 16.7968 139.578 16.8657C139.578 16.8657 139.578 16.7968 139.646 16.7968C140.197 16.7968 140.197 16.728 140.266 16.728ZM64.6063 22.7858C64.6751 22.7858 64.9505 22.7858 65.157 22.717C67.1535 22.3728 68.5992 21.2714 69.7696 19.6881C70.5269 18.6555 71.2153 17.4852 71.2153 16.1773C71.2842 15.1447 70.5269 14.4563 69.4254 14.5252C68.8746 14.594 68.3238 14.7317 67.8419 15.007C65.0193 16.3838 62.8163 18.5178 61.0952 21.0648C60.9575 21.2025 60.9575 21.3402 61.1641 21.4779C62.1279 22.2351 63.2294 22.7858 64.6063 22.7858Z" fill="#CCCCCC"/>
<path d="M76.3104 72.2119C77.0676 69.2519 78.1692 66.5672 79.133 63.8136C79.8214 61.8173 80.5787 59.8898 81.2671 57.8935C81.336 57.6181 81.4737 57.4804 81.8179 57.4804C83.4013 57.4804 84.9159 57.4804 86.4993 57.4804C86.8435 57.4804 86.9812 57.5493 86.9124 57.8935C86.9124 58.1 86.9124 58.2377 86.9124 58.4442C86.9124 59.0637 86.7058 59.2702 86.0862 59.3391C85.8797 59.3391 85.742 59.4079 85.5355 59.4079C84.8471 59.4768 84.8471 59.4768 84.8471 60.234C84.8471 64.4332 84.8471 68.7012 84.8471 72.9003C84.8471 73.3822 84.9847 73.5199 85.3978 73.5199C85.742 73.5199 86.0174 73.5887 86.3616 73.5887C86.9812 73.6576 87.1189 73.7952 87.1878 74.4148C87.1878 74.5525 87.1878 74.759 87.1878 74.8967C87.1878 75.3097 87.1189 75.4474 86.637 75.4474C84.5717 75.4474 82.5752 75.4474 80.5099 75.4474C80.1656 75.4474 79.9591 75.3785 80.0968 74.9655C80.0968 74.8966 80.0968 74.8966 80.0968 74.8278C80.3033 73.7952 80.3033 73.7952 81.336 73.5199C81.4737 73.5199 81.6114 73.451 81.6802 73.451C82.0244 73.451 82.1621 73.3134 82.1621 72.9003C82.1621 68.9765 82.1621 65.0527 82.1621 61.1289C82.1621 60.9912 82.1621 60.8535 82.1621 60.7159C81.7491 61.955 81.4048 63.1252 80.9229 64.3643C79.6149 67.8751 78.3757 71.3859 77.0676 74.8967C76.7923 75.6539 75.9661 75.9292 75.2777 75.585C75.0712 75.5162 75.0023 75.3785 74.9335 75.172C73.3501 70.6286 71.5601 66.0853 70.1144 61.4731C70.0455 61.2666 69.9767 61.0601 69.9078 60.7847C69.7702 60.8535 69.839 60.9912 69.839 61.1289C69.839 65.0527 69.839 69.0454 69.839 72.9692C69.839 73.3134 69.9078 73.451 70.2521 73.451C70.3209 73.451 70.3898 73.451 70.4586 73.451C71.6978 73.5199 71.6289 73.9329 71.6978 75.0343C71.6978 75.2408 71.6289 75.3097 71.4224 75.3097C69.6325 75.3097 67.7737 75.3097 65.9837 75.3097C65.7772 75.3097 65.6395 75.2408 65.7083 75.0343C65.7772 74.6901 65.846 74.3459 65.9149 74.0017C65.9837 73.7264 66.1902 73.5887 66.4656 73.5887C66.741 73.5199 66.9475 73.451 67.2229 73.451C67.7048 73.451 67.7737 73.2445 67.7737 72.7626C67.7737 68.4258 67.7737 64.089 67.7737 59.821C67.7737 59.4079 67.7048 59.2014 67.2918 59.2703C67.2229 59.2703 67.1541 59.2703 67.0852 59.2703C65.7772 59.2014 65.846 58.9261 65.846 57.5493C65.846 57.3428 65.9149 57.2739 66.1214 57.2739C67.7737 57.2739 69.4948 57.2739 71.147 57.2739C71.3536 57.2739 71.4224 57.3428 71.4913 57.4804C73.0058 61.955 74.7269 66.3606 76.035 70.904C76.1727 71.5235 76.2415 71.7989 76.3104 72.2119Z" fill="#CCCCCC"/>
<path d="M28.5326 65.1907C29.8406 65.1907 31.0798 65.1907 32.3878 65.1907C32.6632 65.1907 32.8009 65.1218 32.8009 64.8465C32.8009 63.1944 32.8009 61.5422 32.8009 59.8901C32.8009 59.6148 32.6632 59.4771 32.3878 59.5459C32.2502 59.5459 32.0436 59.5459 31.9059 59.4771C30.9421 59.3394 30.5291 58.651 30.8044 57.6873C30.8733 57.4808 31.011 57.5496 31.0798 57.5496C33.1451 57.5496 35.2105 57.5496 37.2069 57.5496C37.4823 57.5496 37.5512 57.6184 37.5512 57.8938C37.5512 58.1003 37.5512 58.3068 37.5512 58.5133C37.4823 59.2017 37.3446 59.4082 36.6562 59.4771C36.4497 59.4771 36.1743 59.5459 35.9677 59.5459C35.5547 59.5459 35.417 59.6836 35.417 60.0966C35.417 64.4335 35.417 68.7703 35.417 73.0383C35.417 73.4513 35.4858 73.589 35.8989 73.589C36.2431 73.589 36.5873 73.6579 36.9316 73.7267C37.5512 73.7955 37.6889 74.0021 37.7577 74.6216C37.8265 75.5853 37.8265 75.5853 36.8627 75.5853C34.9351 75.5853 33.0074 75.5853 31.0798 75.5853C30.7356 75.5853 30.5979 75.5165 30.6667 75.1035V75.0346C30.8044 73.9332 30.9421 73.8644 32.0436 73.6579C32.7321 73.5202 32.7321 73.5202 32.7321 72.9006C32.7321 71.1797 32.7321 69.3899 32.7321 67.6689C32.7321 67.3247 32.5944 67.2559 32.2502 67.2559C29.7029 67.2559 27.1557 67.2559 24.6084 67.2559C24.2642 67.2559 24.1954 67.3247 24.1954 67.6689C24.1954 69.5275 24.1954 71.3173 24.1954 73.176C24.1954 73.5202 24.2642 73.589 24.6084 73.6579C24.9527 73.6579 25.2969 73.7267 25.71 73.7955C26.123 73.8644 26.3296 74.0709 26.3984 74.4839C26.6049 75.5853 26.5361 75.6542 25.4346 75.6542C23.5069 75.6542 21.5793 75.6542 19.7205 75.6542C19.3074 75.6542 19.2386 75.5165 19.3074 75.1723C19.3074 75.0346 19.3763 74.897 19.3763 74.8281C19.4451 74.2086 19.7893 73.8644 20.4778 73.7955C21.5793 73.6579 21.5793 73.589 21.5793 72.4876C21.5793 68.3573 21.5793 64.2269 21.5793 60.1655C21.5793 59.8213 21.5105 59.5459 21.0974 59.6148C21.0285 59.6148 20.9597 59.6148 20.8909 59.6148C19.514 59.5459 19.7205 59.2017 19.6517 58.0315C19.6517 57.7561 19.7205 57.6873 19.9959 57.6873C21.9924 57.6873 23.9888 57.6873 25.9853 57.6873C26.2607 57.6873 26.3984 57.7561 26.3296 58.0315C26.3296 58.238 26.3296 58.4445 26.3296 58.651C26.2607 59.2706 26.123 59.4771 25.5034 59.5459C25.0904 59.6148 24.6084 59.5459 24.4019 59.7524C24.1265 59.9589 24.3331 60.5097 24.3331 60.8538C24.3331 62.1618 24.3331 63.4697 24.3331 64.7777C24.3331 65.1907 24.4019 65.3284 24.8838 65.3284C25.9853 65.1219 27.2245 65.1907 28.5326 65.1907Z" fill="#CCCCCC"/>
<path d="M121.61 66.5675C121.61 64.4334 121.954 62.5748 122.918 60.8538C124.363 58.4445 126.498 57.2054 129.251 57.0677C130.835 56.9989 132.28 57.2054 133.726 57.8938C135.723 58.9264 136.893 60.5785 137.513 62.6436C138.27 65.3972 138.27 68.1507 137.237 70.8355C135.998 74.3462 133.175 76.136 129.458 75.9984C127.324 75.9295 125.465 75.3788 123.95 73.7955C122.711 72.4876 122.091 70.8355 121.747 69.0457C121.678 68.2196 121.541 67.3247 121.61 66.5675ZM135.103 65.8102C135.103 64.9153 134.897 63.4697 134.208 62.0929C133.244 60.1654 131.799 58.9952 129.527 59.1329C127.324 59.2017 125.878 60.372 125.121 62.3683C124.088 65.2595 124.157 68.2196 125.396 71.1108C126.222 73.0383 127.806 74.0709 129.94 74.002C132.074 73.9332 133.52 72.8318 134.346 70.8355C134.897 69.3898 135.103 67.9442 135.103 65.8102Z" fill="#CCCCCC"/>
<path d="M51.7329 75.5162C49.7364 75.5162 47.6711 75.5162 45.6746 75.5162C45.2615 75.5162 45.1927 75.3786 45.2615 75.0344C45.3304 74.8278 45.3304 74.6213 45.3992 74.4148C45.4681 74.0018 45.7434 73.7953 46.1565 73.7264C46.5007 73.6576 46.845 73.5887 47.1892 73.5199C47.4646 73.5199 47.4646 73.3822 47.4646 73.1757C47.4646 72.5562 47.4646 71.9366 47.4646 71.3171C47.4646 67.5309 47.4646 63.7448 47.4646 60.0275C47.4646 59.6145 47.3957 59.408 46.9826 59.4768C46.9138 59.4768 46.9138 59.4768 46.845 59.4768C45.6746 59.3391 45.3992 58.9949 45.5369 57.7558C45.6058 57.4805 45.7434 57.4805 45.95 57.4805C47.3957 57.4805 48.8414 57.4805 50.2872 57.4805C52.6967 57.4805 55.1063 57.4805 57.5158 57.4805C57.86 57.4805 57.9289 57.5493 57.9289 57.8935C57.9289 58.9949 57.9289 60.0963 57.9289 61.1978C57.9289 61.542 57.7912 61.6108 57.5158 61.542C56.1389 61.3354 56.1389 61.4043 55.9324 60.0275C55.8635 59.3391 55.8636 59.3391 55.1751 59.3391C53.6605 59.3391 52.146 59.3391 50.6314 59.3391C50.2872 59.3391 50.1495 59.408 50.1495 59.7522C50.1495 61.4731 50.1495 63.2629 50.1495 64.9839C50.1495 65.2593 50.2183 65.3969 50.5625 65.3969C51.8017 65.3969 53.0409 65.3969 54.2801 65.3969C54.5555 65.3969 54.6932 65.3281 54.6932 64.9839C54.8309 64.089 55.5882 63.6071 56.4831 63.8136C56.6897 64.0202 56.6897 64.089 56.6897 64.2267C56.6897 65.7411 56.6897 67.2556 56.6897 68.77C56.6897 68.9765 56.6208 69.0454 56.4143 69.0454C56.2766 69.0454 56.1389 69.0454 56.0012 69.0454C54.9686 68.9765 54.8309 68.9077 54.6932 67.8751C54.6244 67.5309 54.5555 67.4621 54.2113 67.4621C52.9721 67.4621 51.8017 67.4621 50.5625 67.4621C50.2872 67.4621 50.1495 67.5309 50.1495 67.8751C50.1495 69.6649 50.1495 71.4547 50.1495 73.2446C50.1495 73.5199 50.2183 73.6576 50.5625 73.6576C52.2836 73.6576 53.9359 73.6576 55.657 73.6576C55.9324 73.6576 56.0012 73.5887 56.0701 73.3134C56.1389 72.8315 56.2078 72.2808 56.2766 71.7989C56.2766 71.5924 56.4143 71.4547 56.6208 71.4547C57.0339 71.3859 57.447 71.3859 57.86 71.3171C58.1354 71.3171 58.2731 71.3859 58.2731 71.6613C58.2731 72.8315 58.2731 74.0706 58.2731 75.2409C58.2731 75.5851 58.1354 75.6539 57.86 75.6539C55.7947 75.5162 53.7294 75.5162 51.7329 75.5162Z" fill="#CCCCCC"/>
<path d="M98.478 75.5162C97.3076 75.5162 96.1372 75.5162 95.0357 75.5162C94.6915 75.5162 94.5538 75.4473 94.6227 75.1031C94.6915 74.8278 94.7604 74.5524 94.8292 74.2082C94.898 73.9329 95.1046 73.7952 95.38 73.7264C95.6553 73.6575 95.8619 73.5887 96.1373 73.5887C96.8945 73.451 96.8945 73.451 96.8945 72.6938C96.8945 68.4946 96.8945 64.2266 96.8945 60.0275C96.8945 59.6833 96.8257 59.4768 96.4815 59.5456C96.4126 59.5456 96.3438 59.5456 96.2749 59.5456C94.8981 59.6833 94.9669 58.9949 94.9669 57.8935C94.9669 57.6869 95.0357 57.6181 95.2423 57.6181C97.996 57.4804 100.75 57.1362 103.504 57.5493C105.225 57.8246 106.67 58.513 107.634 60.0963C109.631 63.3317 107.772 67.5309 103.917 68.4258C102.609 68.7011 101.301 68.6323 99.9237 68.4946C99.5795 68.4946 99.5106 68.4946 99.5106 68.8388C99.5106 70.2844 99.5106 71.7989 99.5106 73.2445C99.5106 73.5199 99.5795 73.6575 99.9237 73.6575C100.406 73.6575 100.888 73.7264 101.369 73.7952C102.058 73.864 102.264 74.0017 102.333 74.6901C102.471 75.6539 102.471 75.6539 101.507 75.6539C100.543 75.5162 99.5106 75.5162 98.478 75.5162ZM99.5795 62.9187C99.5795 64.0201 99.5795 65.0527 99.5795 66.1541C99.5795 66.4295 99.6483 66.4983 99.9237 66.4983C100.888 66.5671 101.782 66.636 102.746 66.5671C104.261 66.4983 105.156 65.6722 105.5 64.2266C105.569 63.9513 105.569 63.6071 105.638 63.3317C105.844 61.5419 104.88 60.0963 103.091 59.5456C101.989 59.2014 100.956 59.2702 99.8548 59.3391C99.5795 59.3391 99.6483 59.5456 99.6483 59.6833C99.5795 60.7847 99.5795 61.8173 99.5795 62.9187Z" fill="#CCCCCC"/>
<path d="M164.43 75.5162C162.365 75.5162 160.3 75.5162 158.303 75.5162C157.959 75.5162 157.821 75.4474 157.89 75.0344C158.166 73.7953 158.166 73.7953 159.405 73.5888C160.162 73.4511 160.162 73.4511 160.162 72.6939C160.162 68.4947 160.162 64.2267 160.162 60.0275C160.162 59.6145 160.093 59.408 159.68 59.4768C159.611 59.4768 159.611 59.4768 159.543 59.4768C158.234 59.3391 158.234 59.2014 158.234 57.8247C158.234 57.6182 158.303 57.5493 158.51 57.5493C160.644 57.5493 162.847 57.5493 164.981 57.5493C165.188 57.5493 165.257 57.687 165.257 57.8247C165.257 58.1689 165.257 58.5131 165.188 58.8573C165.119 59.2014 164.844 59.3391 164.499 59.408C164.086 59.4768 163.673 59.5456 163.26 59.5456C162.847 59.5456 162.778 59.6833 162.778 60.0275C162.778 63.3318 162.778 66.7049 162.778 70.0091C162.778 71.0417 162.778 72.0743 162.778 73.1757C162.778 73.4511 162.847 73.5888 163.191 73.5888C164.912 73.5888 166.633 73.5888 168.355 73.5888C168.699 73.5888 168.768 73.4511 168.768 73.1757C168.768 72.6939 168.905 72.1431 168.974 71.6613C169.043 71.3171 169.181 71.1106 169.525 71.0417C169.938 70.9729 170.282 70.9729 170.695 70.904C170.902 70.904 171.039 70.9729 171.039 71.1794C171.039 72.5562 171.039 73.933 171.039 75.2409C171.039 75.5851 170.833 75.5851 170.626 75.5851C168.63 75.5162 166.565 75.5162 164.43 75.5162Z" fill="#CCCCCC"/>
<path d="M145.361 66.4983C145.361 64.2955 145.361 62.0927 145.361 59.8898C145.361 59.5456 145.292 59.4079 144.947 59.4079C144.879 59.4079 144.81 59.4079 144.741 59.4079C143.226 59.2703 143.502 58.9949 143.433 57.8247C143.433 57.6181 143.502 57.4116 143.777 57.4116C145.774 57.4116 147.839 57.4116 149.835 57.4116C150.111 57.4116 150.248 57.5493 150.18 57.8247C150.18 58.0312 150.18 58.3065 150.111 58.513C150.042 59.0637 149.835 59.2703 149.285 59.2703C149.009 59.2703 148.803 59.3391 148.527 59.3391C147.977 59.2703 147.977 59.5456 147.977 60.0275C147.977 64.2955 147.977 68.6323 147.977 72.9003C147.977 73.3134 148.114 73.451 148.527 73.451C148.872 73.451 149.147 73.5199 149.491 73.5887C150.18 73.6576 150.317 73.8641 150.386 74.5525C150.455 75.4474 150.455 75.4474 149.56 75.4474C147.564 75.4474 145.498 75.4474 143.502 75.4474C143.089 75.4474 143.02 75.3097 143.089 74.9655C143.089 74.8967 143.158 74.759 143.158 74.6901C143.364 73.7952 143.433 73.7264 144.328 73.5887C145.361 73.3822 145.361 73.3822 145.361 72.3496C145.361 70.491 145.361 68.4947 145.361 66.4983Z" fill="#CCCCCC"/>
<path d="M27.0176 30.359C27.0176 30.2892 27.087 30.2892 27.087 30.359C27.1564 30.359 27.087 30.359 27.0176 30.359C27.0176 30.359 27.087 30.359 27.0176 30.359Z" fill="#CCCCCC"/>
<path d="M140.267 16.728C140.198 16.7969 140.198 16.7969 140.129 16.8657C140.06 16.7969 140.129 16.728 140.198 16.6592C140.198 16.6592 140.267 16.6592 140.267 16.728Z" fill="#CCCCCC"/>
<path d="M168.975 29.4634C169.043 29.4634 169.112 29.3945 169.112 29.3945C169.181 29.4634 169.112 29.5322 169.043 29.601C169.043 29.5322 169.043 29.5322 168.975 29.4634Z" fill="#CCCCCC"/>
<path d="M163.882 43.9194C163.882 43.9903 163.812 43.9903 163.812 43.9903C163.812 43.9903 163.812 43.9903 163.812 43.9194H163.882Z" fill="#CCCCCC"/>
<path d="M140.131 16.867C140.131 16.867 140.059 16.867 140.131 16.867C140.059 16.867 140.059 16.7949 140.131 16.867Z" fill="#CCCCCC"/>
</g>
<defs>
<clipPath id="clip0_1991_2">
<rect width="187.876" height="76.0668" fill="white" transform="translate(0.925781)"/>
</clipPath>
</defs>
</svg>
