<svg width="201" height="32" viewBox="0 0 201 32" fill="none" xmlns="http://www.w3.org/2000/svg">
<g clip-path="url(#clip0_1991_18)">
<path d="M54.3721 23.3584H35.4854C31.398 23.3584 28.1562 20.0375 28.1562 16.01C28.1562 11.9825 31.4685 8.66162 35.4854 8.66162H54.3721C58.4595 8.66162 61.7012 11.9825 61.7012 16.01C61.7012 20.0375 58.4595 23.3584 54.3721 23.3584ZM35.4854 14.0316C34.4283 14.0316 33.5826 14.8795 33.5826 15.9393C33.5826 16.9992 34.4283 17.8471 35.4854 17.8471H54.3721C55.4292 17.8471 56.2748 16.9992 56.2748 15.9393C56.2748 14.8795 55.4292 14.0316 54.3721 14.0316H35.4854Z" fill="#CCCCCC"/>
<path d="M146.057 0.465189C146.762 0.465189 147.115 0.818476 147.115 1.45439C147.115 1.59571 147.044 1.80768 146.974 2.01965L135.98 30.4946C135.768 31.0598 135.487 31.2718 135.134 31.2718C134.782 31.2718 134.5 31.0598 134.288 30.5652L126.466 14.1727L118.573 30.5652C118.362 31.0598 118.08 31.2718 117.727 31.2718C117.375 31.2718 117.093 30.9892 116.882 30.4946L105.888 1.94899C105.818 1.73702 105.747 1.52505 105.747 1.38373C105.747 1.10111 105.818 0.889133 106.029 0.677161C106.24 0.535846 106.522 0.394531 106.875 0.394531H111.385C112.09 0.394531 112.583 0.747818 112.794 1.38373L118.291 16.4338L125.62 1.17176C125.902 0.677161 126.184 0.465189 126.466 0.465189C126.818 0.465189 127.1 0.677161 127.312 1.17176L134.5 16.5044L140.138 1.45439C140.349 0.747818 140.842 0.465189 141.547 0.465189H146.057Z" fill="#CCCCCC"/>
<path d="M21.814 0.465332C22.2368 0.465332 22.5187 0.606647 22.7302 0.818619C22.9416 1.03059 23.0825 1.38388 23.0825 1.73716V20.1081C23.0825 22.4398 22.5892 24.4888 21.6026 26.2553C20.616 28.0217 19.2065 29.3642 17.4447 30.2827C15.6829 31.2013 13.5687 31.6959 11.1726 31.6959C8.98798 31.6959 7.08522 31.2013 5.32341 30.2827C3.63206 29.3642 2.29308 28.0924 1.30646 26.5379C1.02457 26.1846 0.954102 25.8313 0.954102 25.478C0.954102 24.9834 1.23599 24.6302 1.7293 24.3475L5.32341 22.8637C5.6053 22.7224 5.81671 22.7224 5.88719 22.7224C6.09861 22.7224 6.31002 22.7931 6.45097 22.9344C6.59191 23.0757 6.80333 23.217 6.94428 23.4996C8.00137 25.0541 9.34035 25.8313 11.1022 25.8313C13.0049 25.8313 14.3439 25.3367 15.1191 24.2769C15.8943 23.217 16.3171 21.8745 16.3171 20.1787V1.73716C16.3171 1.31322 16.4581 1.03059 16.6695 0.818619C16.9514 0.606647 17.3038 0.465332 17.6561 0.465332H21.814Z" fill="#CCCCCC"/>
<path d="M90.0315 0.465332C90.3839 0.465332 90.6658 0.535989 90.8067 0.677304C91.0181 0.818619 91.0886 1.03059 91.0886 1.31322C91.0886 1.52519 91.0181 1.80782 90.8067 2.01979L79.6015 19.6135V30.0001C79.6015 30.4241 79.4606 30.7067 79.2492 30.9187C79.0378 31.1306 78.6854 31.2719 78.333 31.2719H74.2456C73.8228 31.2719 73.5409 31.1306 73.3295 30.9187C73.1181 30.7067 72.9771 30.3534 72.9771 30.0001V19.6135L61.8424 1.94914C61.7015 1.66651 61.5605 1.45454 61.5605 1.24256C61.5605 0.959934 61.631 0.818619 61.8424 0.677304C62.1948 0.535989 62.4767 0.465332 62.8291 0.465332H67.7621C68.4669 0.465332 68.9602 0.747962 69.2421 1.31322L76.3598 12.9717L83.548 1.31322C83.8299 0.747962 84.3937 0.465332 85.0279 0.465332L90.0315 0.465332Z" fill="#CCCCCC"/>
<path d="M145.423 31.3426C145.071 31.3426 144.789 31.272 144.648 31.1306C144.437 30.9893 144.366 30.7773 144.366 30.4947C144.366 30.3534 144.437 30.0708 144.578 29.7881L159.729 1.17191C160.011 0.747962 160.293 0.465332 160.575 0.465332C160.998 0.465332 161.28 0.677304 161.421 1.17191L176.572 29.8588C176.713 30.1414 176.784 30.3534 176.784 30.5654C176.784 30.848 176.713 30.9893 176.502 31.2013C176.29 31.3426 176.008 31.4133 175.727 31.4133H171.146C170.512 31.4133 170.018 31.06 169.666 30.4241L167.693 26.4672H153.387L151.484 30.4241C151.202 31.06 150.709 31.4133 150.004 31.4133L145.423 31.3426ZM164.521 20.8147L160.575 12.901L156.699 20.8147H164.521Z" fill="#CCCCCC"/>
<path d="M199.687 0.465332C200.039 0.465332 200.321 0.535989 200.462 0.677304C200.673 0.818619 200.744 1.03059 200.744 1.31322C200.744 1.52519 200.673 1.80782 200.462 2.01979L189.257 19.6135V30.0001C189.257 30.4241 189.116 30.7067 188.904 30.9187C188.693 31.1306 188.341 31.2719 187.988 31.2719H183.901C183.478 31.2719 183.196 31.1306 182.985 30.9187C182.773 30.7067 182.632 30.3534 182.632 30.0001V19.6135L171.498 1.94914C171.357 1.66651 171.216 1.45454 171.216 1.24256C171.216 0.959934 171.286 0.818619 171.498 0.677304C171.709 0.535989 171.991 0.465332 172.273 0.465332H177.206C177.911 0.465332 178.404 0.747962 178.686 1.31322L185.804 12.9717L192.992 1.31322C193.274 0.747962 193.838 0.465332 194.472 0.465332L199.687 0.465332Z" fill="#CCCCCC"/>
<path d="M32.8076 5.83509C35.7675 2.65551 39.9958 0.606445 44.788 0.606445C49.5801 0.606445 53.8789 2.58485 56.7683 5.83509H32.8076Z" fill="#CCCCCC"/>
<path d="M32.8076 26.1846C35.7675 29.3642 39.9958 31.4132 44.788 31.4132C49.5801 31.4132 53.8789 29.4348 56.7683 26.1846H32.8076Z" fill="#CCCCCC"/>
</g>
<defs>
<clipPath id="clip0_1991_18">
<rect width="199.79" height="31.1599" fill="white" transform="translate(0.954102 0.465332)"/>
</clipPath>
</defs>
</svg>
